<?xml version="1.0" encoding="UTF-8" standalone="no"?>
<svg
   xmlns:dc="http://purl.org/dc/elements/1.1/"
   xmlns:cc="http://creativecommons.org/ns#"
   xmlns:rdf="http://www.w3.org/1999/02/22-rdf-syntax-ns#"
   xmlns:svg="http://www.w3.org/2000/svg"
   xmlns="http://www.w3.org/2000/svg"
   viewBox="0 150 1056 50"
   height="250"
   width="1056"
   xml:space="preserve"
   id="svg2"
   version="1.1"><metadata
     id="metadata8"><rdf:RDF><cc:Work
         rdf:about=""><dc:format>image/svg+xml</dc:format><dc:type
           rdf:resource="http://purl.org/dc/dcmitype/StillImage" /></cc:Work></rdf:RDF></metadata><defs
     id="defs6" /><g
     transform="translate(0,2.04e-5)"
     id="g10"><g
       id="g12"><path
         id="path14"
         style="fill:#ffc000;fill-opacity:1;fill-rule:nonzero;stroke:none"
         d="M 66.559998,73.279999 H 962.71997 V 100.96 H 66.559998 Z" /></g><g
       id="g16"><text
         id="text20"
         style="font-variant:normal;font-weight:normal;font-size:21.32040024px;font-family:F1;-inkscape-font-specification:F1;writing-mode:lr-tb;fill:#000000;fill-opacity:1;fill-rule:nonzero;stroke:none"
         transform="translate(69.279999,93.919998)"><tspan
           id="tspan18"
           y="0"
           x="0 5.543304 104.46996 114.2661 121.51504 132.71657 143.91811 154.36511 165.66492 172.91386 177.60434 191.4626 202.66414 219.50726 230.80707 241.41522 266.5733 276.36945 283.61838 294.91818 306.11972 316.56671 327.86652 332.55701 346.41528 356.62784 373.65918 400.52286 410.91241 422.21222 432.65921 440.99789 445.89078 454.41891 459.10941 469.49893 474.39182 481.64075 486.75763 598.68976 611.026 622.22754 631.85712 636.75 645.08868 655.69684 750.78583 763.12207 770.55505 780.59064 791.89044 802.33746">IDStudent NumberStuden NameThesis TitleAdviserArguer</tspan></text>
</g><g
       id="g22"><text
         id="text26"
         style="font-variant:normal;font-weight:normal;font-size:21.32040024px;font-family:F1;-inkscape-font-specification:F1;writing-mode:lr-tb;fill:#000000;fill-opacity:1;fill-rule:nonzero;stroke:none"
         transform="translate(156.32001,122.08)"><tspan
           id="tspan24"
           y="0"
           x="0 119.18104 129.98698 141.07359 151.87953 162.68549 179.52859 193.38686 203.59941 220.63074 231.07774 235.89774 313.504 324.30994 335.11588 345.92181 357.00842 367.81439 372.63437 383.0239 388.14081 395.28229 400.17517 410.78333 415.6033 426.21146 435.59244 445.80499 462.6481 473.94791 478.84079 511.67419 524.01044 535.31024 544.93982 549.8327 558.17139 568.61841 576.05139 580.8714 592.1712 602.38373 619.22687 629.83502 634.65503 663.86395 676.2002 683.44916 693.68292 704.88446 715.33148 722.76447 727.58447 738.88428 749.09686 765.93994 776.5481 781.3681">111111Name 111111 Title exampleAdviser name 1Arguer name 1</tspan></text>
</g><g
       id="g28"><text
         id="text32"
         style="font-variant:normal;font-weight:normal;font-size:21.32040024px;font-family:F1;-inkscape-font-specification:F1;writing-mode:lr-tb;fill:#000000;fill-opacity:1;fill-rule:nonzero;stroke:none"
         transform="translate(156.32001,150.24)"><tspan
           id="tspan30"
           y="0"
           x="0 119.18104 129.98698 141.07359 151.87953 162.68549 179.52859 193.38686 203.59941 220.63074 231.07774 235.89774 313.504 324.30994 335.11588 345.92181 357.00842 367.81439 372.63437 383.0239 388.14081 395.28229 400.17517 410.78333 415.6033 426.21146 435.59244 445.80499 462.6481 473.94791 478.84079 511.67419 524.01044 535.31024 544.93982 549.8327 558.17139 568.61841 576.05139 580.8714 592.1712 602.38373 619.22687 629.83502 634.65503 663.86395 676.2002 683.44916 693.68292 704.88446 715.33148 722.76447 727.58447 738.88428 749.09686 765.93994 776.5481 781.3681">222222Name 222222 Title exampleAdviser name 2Arguer name 2</tspan></text>
</g><g
       id="g34"><text
         id="text38"
         style="font-variant:normal;font-weight:normal;font-size:21.32040024px;font-family:F1;-inkscape-font-specification:F1;writing-mode:lr-tb;fill:#000000;fill-opacity:1;fill-rule:nonzero;stroke:none"
         transform="translate(156.32001,178.39999)"><tspan
           id="tspan36"
           y="0"
           x="0 119.18104 129.98698 141.07359 151.87953 162.68549 179.52859 193.38686 203.59941 220.63074 231.07774 235.89774 313.504 324.30994 335.11588 345.92181 357.00842 367.81439 372.63437 383.0239 388.14081 395.28229 400.17517 410.78333 415.6033 426.21146 435.59244 445.80499 462.6481 473.94791 478.84079 511.67419 524.01044 535.31024 544.93982 549.8327 558.17139 568.61841 576.05139 580.8714 592.1712 602.38373 619.22687 629.83502 634.65503 663.86395 676.2002 683.44916 693.68292 704.88446 715.33148 722.76447 727.58447 738.88428 749.09686 765.93994 776.5481 781.3681">333333Name 333333 Title exampleAdviser name 3Arguer name 3</tspan></text>
</g><g
       id="g40"><text
         id="text44"
         style="font-variant:normal;font-weight:normal;font-size:21.32040024px;font-family:F1;-inkscape-font-specification:F1;writing-mode:lr-tb;fill:#000000;fill-opacity:1;fill-rule:nonzero;stroke:none"
         transform="translate(156.32001,206.56)"><tspan
           id="tspan42"
           y="0"
           x="0 119.18104 129.98698 141.07359 151.87953 162.68549 179.52859 193.38686 203.59941 220.63074 231.07774 235.89774 313.504 324.30994 335.11588 345.92181 357.00842 367.81439 372.63437 383.0239 388.14081 395.28229 400.17517 410.78333 415.6033 426.21146 435.59244 445.80499 462.6481 473.94791 478.84079 511.67419 524.01044 535.31024 544.93982 549.8327 558.17139 568.61841 576.05139 580.8714 592.1712 602.38373 619.22687 629.83502 634.65503 663.86395 676.2002 683.44916 693.68292 704.88446 715.33148 722.76447 727.58447 738.88428 749.09686 765.93994 776.5481 781.3681">444444Name 444444 Title exampleAdviser name 4Arguer name 4</tspan></text>
</g><g
       id="g46"><text
         id="text50"
         style="font-variant:normal;font-weight:normal;font-size:21.32040024px;font-family:F1;-inkscape-font-specification:F1;writing-mode:lr-tb;fill:#000000;fill-opacity:1;fill-rule:nonzero;stroke:none"
         transform="translate(156.32001,234.72)"><tspan
           id="tspan48"
           y="0"
           x="0 119.18104 129.98698 141.07359 151.87953 162.68549 179.52859 193.38686 203.59941 220.63074 231.07774 235.89774 313.504 324.30994 335.11588 345.92181 357.00842 367.81439 372.63437 383.0239 388.14081 395.28229 400.17517 410.78333 415.6033 426.21146 435.59244 445.80499 462.6481 473.94791 478.84079 511.67419 524.01044 535.31024 544.93982 549.8327 558.17139 568.61841 576.05139 580.8714 592.1712 602.38373 619.22687 629.83502 634.65503 663.86395 676.2002 683.44916 693.68292 704.88446 715.33148 722.76447 727.58447 738.88428 749.09686 765.93994 776.5481 781.3681">555555Name 555555 Title exampleAdviser name 5Arguer name 5</tspan></text>
</g><g
       id="g52"><text
         id="text56"
         style="font-variant:normal;font-weight:normal;font-size:21.32040024px;font-family:F1;-inkscape-font-specification:F1;writing-mode:lr-tb;fill:#000000;fill-opacity:1;fill-rule:nonzero;stroke:none"
         transform="translate(156.32001,262.88)"><tspan
           id="tspan54"
           y="0"
           x="0 119.18104 129.98698 141.07359 151.87953 162.68549 179.52859 193.38686 203.59941 220.63074 231.07774 235.89774 313.504 324.30994 335.11588 345.92181 357.00842 367.81439 372.63437 383.0239 388.14081 395.28229 400.17517 410.78333 415.6033 426.21146 435.59244 445.80499 462.6481 473.94791 478.84079 511.67419 524.01044 535.31024 544.93982 549.8327 558.17139 568.61841 576.05139 580.8714 592.1712 602.38373 619.22687 629.83502 634.65503 663.86395 676.2002 683.44916 693.68292 704.88446 715.33148 722.76447 727.58447 738.88428 749.09686 765.93994 776.5481 781.3681">666666Name 666666 Title exampleAdviser name 6Arguer name 6</tspan></text>
</g><g
       id="g58"><text
         id="text62"
         style="font-variant:normal;font-weight:normal;font-size:21.32040024px;font-family:F1;-inkscape-font-specification:F1;writing-mode:lr-tb;fill:#000000;fill-opacity:1;fill-rule:nonzero;stroke:none"
         transform="translate(156.32001,291.04001)"><tspan
           id="tspan60"
           y="0"
           x="0 119.18104 129.98698 141.07359 151.87953 162.68549 179.52859 193.38686 203.59941 220.63074 231.07774 235.89774 313.504 324.30994 335.11588 345.92181 357.00842 367.81439 372.63437 383.0239 388.14081 395.28229 400.17517 410.78333 415.6033 426.21146 435.59244 445.80499 462.6481 473.94791 478.84079 511.67419 524.01044 535.31024 544.93982 549.8327 558.17139 568.61841 576.05139 580.8714 592.1712 602.38373 619.22687 629.83502 634.65503 663.86395 676.2002 683.44916 693.68292 704.88446 715.33148 722.76447 727.58447 738.88428 749.09686 765.93994 776.5481 781.3681">777777Name 777777 Title exampleAdviser name 7Arguer name 7</tspan></text>
</g></g></svg>